{
    "accessors" : [
        {
            "bufferView" : 0,
            "componentType" : 5123,
            "count" : 384,
            "max" : [
                308
            ],
            "min" : [
                0
            ],
            "type" : "SCALAR"
        },
        {
            "bufferView" : 1,
            "componentType" : 5126,
            "count" : 309,
            "max" : [
                7.225682258605957,
                -1.1920928955078125e-07,
                7.225682258605957
            ],
            "min" : [
                -7.225681304931641,
                -0.10000012069940567,
                -7.225679874420166
            ],
            "type" : "VEC3"
        },
        {
            "bufferView" : 2,
            "componentType" : 5126,
            "count" : 309,
            "max" : [
                0.9951847791671753,
                1.0,
                0.9951847791671753
            ],
            "min" : [
                -0.9951847791671753,
                -1.0,
                -0.9951847791671753
            ],
            "type" : "VEC3"
        },
        {
            "bufferView" : 3,
            "componentType" : 5126,
            "count" : 309,
            "max" : [
                1.0545807526796125e-05,
                1.0,
                0.7730109095573425,
                1.0
            ],
            "min" : [
                -0.6343944072723389,
                -1.0,
                -0.7730108499526978,
                1.0
            ],
            "type" : "VEC4"
        },
        {
            "bufferView" : 4,
            "componentType" : 5126,
            "count" : 309,
            "max" : [
                0.9982737302780151,
                0.9981160365277901
            ],
            "min" : [
                0.001726307556964457,
                0.0018839240074157715
            ],
            "type" : "VEC2"
        }
    ],
    "asset" : {
        "generator" : "Khronos Blender glTF 2.0 exporter",
        "version" : "2.0"
    },
    "bufferViews" : [
        {
            "buffer" : 0,
            "byteLength" : 768,
            "byteOffset" : 0,
            "target" : 34963
        },
        {
            "buffer" : 0,
            "byteLength" : 3708,
            "byteOffset" : 768,
            "target" : 34962
        },
        {
            "buffer" : 0,
            "byteLength" : 3708,
            "byteOffset" : 4476,
            "target" : 34962
        },
        {
            "buffer" : 0,
            "byteLength" : 4944,
            "byteOffset" : 8184,
            "target" : 34962
        },
        {
            "buffer" : 0,
            "byteLength" : 2472,
            "byteOffset" : 13128,
            "target" : 34962
        }
    ],
    "buffers" : [
        {
            "byteLength" : 15600,
            "uri" : "pond_surface.bin"
        }
    ],
    "images" : [
        {
            "name" : "aqua_diff",
            "uri" : "aqua_diff.png"
        }
    ],
    "materials" : [
        {
            "alphaMode" : "BLEND",
            "name" : "water_surface",
            "pbrMetallicRoughness" : {
                "baseColorFactor" : [
                    0.6400000190734865,
                    0.6400000190734865,
                    0.6400000190734865,
                    0.15000000596046448
                ],
                "baseColorTexture" : {
                    "index" : 0
                },
                "metallicFactor" : 0.0
            }
        }
    ],
    "meshes" : [
        {
            "name" : "water_surface",
            "primitives" : [
                {
                    "attributes" : {
                        "NORMAL" : 2,
                        "POSITION" : 1,
                        "TANGENT" : 3,
                        "TEXCOORD_0" : 4
                    },
                    "indices" : 0,
                    "material" : 0
                }
            ]
        }
    ],
    "nodes" : [
        {
            "mesh" : 0,
            "name" : "water_surface",
            "translation" : [
                -7.59999942779541,
                0.0022915001027286053,
                -0.1471100002527237
            ]
        }
    ],
    "samplers" : [
        {}
    ],
    "scene" : 0,
    "scenes" : [
        {
            "name" : "Scene",
            "nodes" : [
                0
            ]
        }
    ],
    "textures" : [
        {
            "sampler" : 0,
            "source" : 0
        }
    ]
}
