{
    "accessors" : [
        {
            "bufferView" : 0,
            "componentType" : 5123,
            "count" : 19932,
            "max" : [
                18676
            ],
            "min" : [
                0
            ],
            "type" : "SCALAR"
        },
        {
            "bufferView" : 1,
            "componentType" : 5126,
            "count" : 18677,
            "max" : [
                15.0,
                0.05000000074505806,
                15.0
            ],
            "min" : [
                -15.0,
                -0.9366487264633179,
                -15.0
            ],
            "type" : "VEC3"
        },
        {
            "bufferView" : 2,
            "componentType" : 5126,
            "count" : 18677,
            "max" : [
                1.0,
                1.0,
                1.0
            ],
            "min" : [
                -1.0,
                -1.0,
                -1.0
            ],
            "type" : "VEC3"
        },
        {
            "bufferView" : 3,
            "componentType" : 5126,
            "count" : 18677,
            "max" : [
                0.037651121616363525,
                1.0,
                0.00012369334581308067,
                1.0
            ],
            "min" : [
                -1.0,
                -1.0,
                -0.9998847842216492,
                1.0
            ],
            "type" : "VEC4"
        },
        {
            "bufferView" : 4,
            "componentType" : 5126,
            "count" : 18677,
            "max" : [
                0.9991686940193176,
                0.9991694354102947
            ],
            "min" : [
                0.0008313087746500969,
                0.000830531120300293
            ],
            "type" : "VEC2"
        },
        {
            "bufferView" : 5,
            "componentType" : 5123,
            "count" : 1224,
            "max" : [
                1220
            ],
            "min" : [
                0
            ],
            "type" : "SCALAR"
        },
        {
            "bufferView" : 6,
            "componentType" : 5126,
            "count" : 1221,
            "max" : [
                -1.8292678594589233,
                -9.229546412825584e-05,
                5.4878058433532715
            ],
            "min" : [
                -13.536584854125977,
                -0.8366487622261047,
                -6.219510555267334
            ],
            "type" : "VEC3"
        },
        {
            "bufferView" : 7,
            "componentType" : 5126,
            "count" : 1221,
            "max" : [
                0.5074519515037537,
                1.0,
                0.37446027994155884
            ],
            "min" : [
                -0.3475297689437866,
                0.8219477534294128,
                -0.43230322003364563
            ],
            "type" : "VEC3"
        },
        {
            "bufferView" : 8,
            "componentType" : 5126,
            "count" : 1221,
            "max" : [
                0.05810566619038582,
                0.3767243027687073,
                -0.90159672498703,
                1.0
            ],
            "min" : [
                -0.03653647005558014,
                -0.43103182315826416,
                -0.9998849034309387,
                1.0
            ],
            "type" : "VEC4"
        },
        {
            "bufferView" : 9,
            "componentType" : 5126,
            "count" : 1221,
            "max" : [
                0.8512634634971619,
                0.7184910178184509
            ],
            "min" : [
                0.6582005620002747,
                0.5242998898029327
            ],
            "type" : "VEC2"
        },
        {
            "bufferView" : 10,
            "componentType" : 5123,
            "count" : 96,
            "max" : [
                95
            ],
            "min" : [
                0
            ],
            "type" : "SCALAR"
        },
        {
            "bufferView" : 11,
            "componentType" : 5126,
            "count" : 96,
            "max" : [
                7.225682258605957,
                -1.1920928955078125e-07,
                7.225682258605957
            ],
            "min" : [
                -7.225681304931641,
                -1.1920928955078125e-07,
                -7.225679874420166
            ],
            "type" : "VEC3"
        },
        {
            "bufferView" : 12,
            "componentType" : 5126,
            "count" : 96,
            "max" : [
                -0.0,
                1.0,
                -0.0
            ],
            "min" : [
                -0.0,
                0.9999999403953552,
                -0.0
            ],
            "type" : "VEC3"
        },
        {
            "bufferView" : 13,
            "componentType" : 5126,
            "count" : 96,
            "max" : [
                0.9951850175857544,
                5.553801911634473e-15,
                0.09801870584487915,
                1.0
            ],
            "min" : [
                0.995184600353241,
                -5.5538027586674206e-15,
                0.09801483154296875,
                1.0
            ],
            "type" : "VEC4"
        },
        {
            "bufferView" : 14,
            "componentType" : 5126,
            "count" : 96,
            "max" : [
                0.9999000430107117,
                0.9999000199895818
            ],
            "min" : [
                9.998001041822135e-05,
                9.995698928833008e-05
            ],
            "type" : "VEC2"
        }
    ],
    "asset" : {
        "generator" : "Khronos Blender glTF 2.0 exporter",
        "version" : "2.0"
    },
    "bufferViews" : [
        {
            "buffer" : 0,
            "byteLength" : 39864,
            "byteOffset" : 0,
            "target" : 34963
        },
        {
            "buffer" : 0,
            "byteLength" : 224124,
            "byteOffset" : 39864,
            "target" : 34962
        },
        {
            "buffer" : 0,
            "byteLength" : 224124,
            "byteOffset" : 263988,
            "target" : 34962
        },
        {
            "buffer" : 0,
            "byteLength" : 298832,
            "byteOffset" : 488112,
            "target" : 34962
        },
        {
            "buffer" : 0,
            "byteLength" : 149416,
            "byteOffset" : 786944,
            "target" : 34962
        },
        {
            "buffer" : 0,
            "byteLength" : 2448,
            "byteOffset" : 936360,
            "target" : 34963
        },
        {
            "buffer" : 0,
            "byteLength" : 14652,
            "byteOffset" : 938808,
            "target" : 34962
        },
        {
            "buffer" : 0,
            "byteLength" : 14652,
            "byteOffset" : 953460,
            "target" : 34962
        },
        {
            "buffer" : 0,
            "byteLength" : 19536,
            "byteOffset" : 968112,
            "target" : 34962
        },
        {
            "buffer" : 0,
            "byteLength" : 9768,
            "byteOffset" : 987648,
            "target" : 34962
        },
        {
            "buffer" : 0,
            "byteLength" : 192,
            "byteOffset" : 997416,
            "target" : 34963
        },
        {
            "buffer" : 0,
            "byteLength" : 1152,
            "byteOffset" : 997608,
            "target" : 34962
        },
        {
            "buffer" : 0,
            "byteLength" : 1152,
            "byteOffset" : 998760,
            "target" : 34962
        },
        {
            "buffer" : 0,
            "byteLength" : 1536,
            "byteOffset" : 999912,
            "target" : 34962
        },
        {
            "buffer" : 0,
            "byteLength" : 768,
            "byteOffset" : 1001448,
            "target" : 34962
        }
    ],
    "buffers" : [
        {
            "byteLength" : 1002216,
            "uri" : "pond.bin"
        }
    ],
    "images" : [
        {
            "name" : "brown_diff",
            "uri" : "brown_diff.png"
        },
        {
            "name" : "brown2_diff",
            "uri" : "brown2_diff.png"
        },
        {
            "name" : "aqua_diff",
            "uri" : "aqua_diff.png"
        }
    ],
    "materials" : [
        {
            "name" : "ground",
            "pbrMetallicRoughness" : {
                "baseColorFactor" : [
                    0.6400000190734865,
                    0.6400000190734865,
                    0.6400000190734865,
                    1.0
                ],
                "baseColorTexture" : {
                    "index" : 0
                },
                "metallicFactor" : 0.0
            }
        },
        {
            "name" : "water_bottom",
            "pbrMetallicRoughness" : {
                "baseColorFactor" : [
                    0.6400000190734865,
                    0.6400000190734865,
                    0.6400000190734865,
                    1.0
                ],
                "baseColorTexture" : {
                    "index" : 1
                },
                "metallicFactor" : 0.0
            }
        },
        {
            "alphaMode" : "BLEND",
            "name" : "water_surface",
            "pbrMetallicRoughness" : {
                "baseColorFactor" : [
                    0.6400000190734865,
                    0.6400000190734865,
                    0.6400000190734865,
                    0.15000000596046448
                ],
                "baseColorTexture" : {
                    "index" : 2
                },
                "metallicFactor" : 0.0
            }
        }
    ],
    "meshes" : [
        {
            "name" : "ground",
            "primitives" : [
                {
                    "attributes" : {
                        "NORMAL" : 2,
                        "POSITION" : 1,
                        "TANGENT" : 3,
                        "TEXCOORD_0" : 4
                    },
                    "indices" : 0,
                    "material" : 0
                },
                {
                    "attributes" : {
                        "NORMAL" : 7,
                        "POSITION" : 6,
                        "TANGENT" : 8,
                        "TEXCOORD_0" : 9
                    },
                    "indices" : 5,
                    "material" : 1
                }
            ]
        },
        {
            "name" : "water_surface",
            "primitives" : [
                {
                    "attributes" : {
                        "NORMAL" : 12,
                        "POSITION" : 11,
                        "TANGENT" : 13,
                        "TEXCOORD_0" : 14
                    },
                    "indices" : 10,
                    "material" : 2
                }
            ]
        }
    ],
    "nodes" : [
        {
            "mesh" : 0,
            "name" : "ground"
        },
        {
            "mesh" : 1,
            "name" : "water_surface",
            "translation" : [
                -7.59999942779541,
                0.0022915005683898926,
                -0.1471104621887207
            ]
        }
    ],
    "samplers" : [
        {}
    ],
    "scene" : 0,
    "scenes" : [
        {
            "name" : "Scene",
            "nodes" : [
                1,
                0
            ]
        }
    ],
    "textures" : [
        {
            "sampler" : 0,
            "source" : 0
        },
        {
            "sampler" : 0,
            "source" : 1
        },
        {
            "sampler" : 0,
            "source" : 2
        }
    ]
}
